<svg xmlns="http://www.w3.org/2000/svg" viewBox="0 0 600 420" role="img" aria-label="FOOTBALL">
<defs><linearGradient id="bg" x1="0" y1="0" x2="1" y2="1"><stop stop-color="#f8fafc"/><stop offset="1" stop-color="#667085" stop-opacity=".28"/></linearGradient><filter id="shadow"><feDropShadow dx="0" dy="12" stdDeviation="12" flood-opacity=".16"/></filter></defs>
<rect width="600" height="420" rx="32" fill="url(#bg)"/>
<circle cx="80" cy="70" r="90" fill="#101828" opacity=".08"/><circle cx="550" cy="365" r="120" fill="#667085" opacity=".12"/>
<g filter="url(#shadow)"><circle cx="300" cy="205" r="105" fill="#f8fafc"/><polygon points="300,145 343,176 327,226 273,226 257,176" fill="#101828"/><path d="M300 100L300 145M200 170L257 176M400 170L343 176M225 285L273 226M375 285L327 226" stroke="#101828" stroke-width="12"/><path d="M220 125L200 170L225 285M380 125L400 170L375 285" fill="none" stroke="#101828" stroke-width="10"/></g>
<text x="42" y="55" font-family="Arial, sans-serif" font-size="24" font-weight="800" fill="#101828" letter-spacing="3">FOOTBALL</text>
<text x="44" y="385" font-family="Arial, sans-serif" font-size="14" font-weight="700" fill="#475467" letter-spacing="2">FOOTBALL</text>
</svg>